<?xml version="1.0" encoding="utf-8"?>
<!-- Generator: Adobe Illustrator 25.4.1, SVG Export Plug-In . SVG Version: 6.00 Build 0)  -->
<svg version="1.1" id="Layer_1" xmlns="http://www.w3.org/2000/svg" xmlns:xlink="http://www.w3.org/1999/xlink" x="0px" y="0px"
	 viewBox="0 0 24 24" style="enable-background:new 0 0 24 24;" xml:space="preserve">
<style type="text/css">
	.st0{fill:#FFFFFF;}
</style>
<path class="st0" d="M12,1.8c1.4,0,2.7,0.3,4,0.8c1.2,0.5,2.3,1.3,3.3,2.2c0.9,0.9,1.7,2,2.2,3.3s0.8,2.6,0.8,4s-0.3,2.7-0.8,4
	c-0.5,1.2-1.3,2.3-2.2,3.3c-0.9,0.9-2,1.7-3.3,2.2s-2.6,0.8-4,0.8H1.8V12c0-1.4,0.3-2.7,0.8-4c0.5-1.2,1.3-2.3,2.2-3.3
	c0.9-0.9,2-1.7,3.3-2.2C9.3,2,10.6,1.8,12,1.8"/>
<g>
	<path d="M12,1.8c1.4,0,2.7,0.3,4,0.8c1.2,0.5,2.3,1.3,3.3,2.2c0.9,0.9,1.7,2,2.2,3.3s0.8,2.6,0.8,4s-0.3,2.7-0.8,4
		c-0.5,1.2-1.3,2.3-2.2,3.3c-0.9,0.9-2,1.7-3.3,2.2s-2.6,0.8-4,0.8H1.8V12c0-1.4,0.3-2.7,0.8-4c0.5-1.2,1.3-2.3,2.2-3.3
		c0.9-0.9,2-1.7,3.3-2.2C9.3,2,10.6,1.8,12,1.8 M12,0C5.4,0,0,5.4,0,12c0,3.1,0,12,0,12s8.5,0,12,0c6.6,0,12-5.4,12-12S18.6,0,12,0
		L12,0z"/>
	<path d="M17.7,10.7L15,6.1c-0.4-0.7-1.5-0.8-2-0.2l-3,3.6l-2.6,1.6c-1.1,0.7-1.5,2.2-0.8,3.4l0.1,0.2C7.1,15.6,8,16.1,8.8,16
		l1.6,2.2c0.3,0.5,1,0.6,1.4,0.2l0.1-0.1c0.5-0.3,0.6-1,0.2-1.5L10.8,15l2.6-1.6l3.5-0.8C17.8,12.4,18.2,11.4,17.7,10.7z"/>
</g>
</svg>
